<?xml version="1.0" encoding="UTF-8" standalone="no"?>
<!DOCTYPE svg PUBLIC "-//W3C//DTD SVG 1.1//EN"
 "http://www.w3.org/Graphics/SVG/1.1/DTD/svg11.dtd">
<!-- Generated by graphviz version 2.40.1 (20161225.0304)
 -->
<!-- Title: model Pages: 1 -->
<svg width="196pt" height="1534pt"
 viewBox="0.00 0.00 195.53 1534.00" xmlns="http://www.w3.org/2000/svg" xmlns:xlink="http://www.w3.org/1999/xlink">
<g id="graph0" class="graph" transform="scale(.6572 .6572) rotate(0) translate(4 2330)">
<title>model</title>
<polygon fill="#ffffff" stroke="transparent" points="-4,4 -4,-2330 293.5,-2330 293.5,4 -4,4"/>
<!-- 0 -->
<g id="node1" class="node">
<title>0</title>
<polygon fill="#ffffe0" stroke="#000000" points="91.5,-2306.5 91.5,-2325.5 262.5,-2325.5 262.5,-2306.5 91.5,-2306.5"/>
<text text-anchor="middle" x="177" y="-2313.5" font-family="Linux libertine" font-size="10.00" fill="#000000">input&#45;tensor&#45;0: (4096, 3, 16, 16)</text>
</g>
<!-- 1 -->
<g id="node2" class="node">
<title>1</title>
<polygon fill="#c1ffc1" stroke="#000000" points="82.5,-2231.5 82.5,-2269.5 271.5,-2269.5 271.5,-2231.5 82.5,-2231.5"/>
<text text-anchor="middle" x="103.5" y="-2248" font-family="Linux libertine" font-size="10.00" fill="#000000">ViT&#45;0</text>
<polyline fill="none" stroke="#000000" points="124.5,-2231.5 124.5,-2269.5 "/>
<text text-anchor="middle" x="150" y="-2257.5" font-family="Linux libertine" font-size="10.00" fill="#000000">input:</text>
<polyline fill="none" stroke="#000000" points="124.5,-2250.5 175.5,-2250.5 "/>
<text text-anchor="middle" x="150" y="-2238.5" font-family="Linux libertine" font-size="10.00" fill="#000000">output:</text>
<polyline fill="none" stroke="#000000" points="175.5,-2231.5 175.5,-2269.5 "/>
<text text-anchor="middle" x="223.5" y="-2257.5" font-family="Linux libertine" font-size="10.00" fill="#000000">(4096, 3, 16, 16)</text>
<polyline fill="none" stroke="#000000" points="175.5,-2250.5 271.5,-2250.5 "/>
<text text-anchor="middle" x="223.5" y="-2238.5" font-family="Linux libertine" font-size="10.00" fill="#000000">(4096, 1)</text>
</g>
<!-- 0&#45;&gt;1 -->
<g id="edge1" class="edge">
<title>0&#45;&gt;1</title>
<path fill="none" stroke="#000000" d="M177,-2306.3352C177,-2299.2793 177,-2289.3144 177,-2279.7519"/>
<polygon fill="#000000" stroke="#000000" points="180.5001,-2279.6903 177,-2269.6903 173.5001,-2279.6903 180.5001,-2279.6903"/>
</g>
<!-- 2 -->
<g id="node3" class="node">
<title>2</title>
<polygon fill="#c1ffc1" stroke="#000000" points="64.5,-2156.5 64.5,-2194.5 289.5,-2194.5 289.5,-2156.5 64.5,-2156.5"/>
<text text-anchor="middle" x="103.5" y="-2173" font-family="Linux libertine" font-size="10.00" fill="#000000">Sequential&#45;1</text>
<polyline fill="none" stroke="#000000" points="142.5,-2156.5 142.5,-2194.5 "/>
<text text-anchor="middle" x="168" y="-2182.5" font-family="Linux libertine" font-size="10.00" fill="#000000">input:</text>
<polyline fill="none" stroke="#000000" points="142.5,-2175.5 193.5,-2175.5 "/>
<text text-anchor="middle" x="168" y="-2163.5" font-family="Linux libertine" font-size="10.00" fill="#000000">output:</text>
<polyline fill="none" stroke="#000000" points="193.5,-2156.5 193.5,-2194.5 "/>
<text text-anchor="middle" x="241.5" y="-2182.5" font-family="Linux libertine" font-size="10.00" fill="#000000">(4096, 3, 16, 16)</text>
<polyline fill="none" stroke="#000000" points="193.5,-2175.5 289.5,-2175.5 "/>
<text text-anchor="middle" x="241.5" y="-2163.5" font-family="Linux libertine" font-size="10.00" fill="#000000">(4096, 4, 32)</text>
</g>
<!-- 1&#45;&gt;2 -->
<g id="edge2" class="edge">
<title>1&#45;&gt;2</title>
<path fill="none" stroke="#000000" d="M177,-2231.1856C177,-2223.2247 177,-2213.821 177,-2205.03"/>
<polygon fill="#000000" stroke="#000000" points="180.5001,-2204.7489 177,-2194.7489 173.5001,-2204.7489 180.5001,-2204.7489"/>
</g>
<!-- 3 -->
<g id="node4" class="node">
<title>3</title>
<polygon fill="#c1ffc1" stroke="#000000" points="65,-2081.5 65,-2119.5 289,-2119.5 289,-2081.5 65,-2081.5"/>
<text text-anchor="middle" x="103.5" y="-2098" font-family="Linux libertine" font-size="10.00" fill="#000000">Rearrange&#45;2</text>
<polyline fill="none" stroke="#000000" points="142,-2081.5 142,-2119.5 "/>
<text text-anchor="middle" x="167.5" y="-2107.5" font-family="Linux libertine" font-size="10.00" fill="#000000">input:</text>
<polyline fill="none" stroke="#000000" points="142,-2100.5 193,-2100.5 "/>
<text text-anchor="middle" x="167.5" y="-2088.5" font-family="Linux libertine" font-size="10.00" fill="#000000">output:</text>
<polyline fill="none" stroke="#000000" points="193,-2081.5 193,-2119.5 "/>
<text text-anchor="middle" x="241" y="-2107.5" font-family="Linux libertine" font-size="10.00" fill="#000000">(4096, 3, 16, 16)</text>
<polyline fill="none" stroke="#000000" points="193,-2100.5 289,-2100.5 "/>
<text text-anchor="middle" x="241" y="-2088.5" font-family="Linux libertine" font-size="10.00" fill="#000000">(4096, 4, 192)</text>
</g>
<!-- 2&#45;&gt;3 -->
<g id="edge3" class="edge">
<title>2&#45;&gt;3</title>
<path fill="none" stroke="#000000" d="M177,-2156.1856C177,-2148.2247 177,-2138.821 177,-2130.03"/>
<polygon fill="#000000" stroke="#000000" points="180.5001,-2129.7489 177,-2119.7489 173.5001,-2129.7489 180.5001,-2129.7489"/>
</g>
<!-- 4 -->
<g id="node5" class="node">
<title>4</title>
<polygon fill="#c1ffc1" stroke="#000000" points="81.5,-2006.5 81.5,-2044.5 272.5,-2044.5 272.5,-2006.5 81.5,-2006.5"/>
<text text-anchor="middle" x="109.5" y="-2023" font-family="Linux libertine" font-size="10.00" fill="#000000">Linear&#45;2</text>
<polyline fill="none" stroke="#000000" points="137.5,-2006.5 137.5,-2044.5 "/>
<text text-anchor="middle" x="163" y="-2032.5" font-family="Linux libertine" font-size="10.00" fill="#000000">input:</text>
<polyline fill="none" stroke="#000000" points="137.5,-2025.5 188.5,-2025.5 "/>
<text text-anchor="middle" x="163" y="-2013.5" font-family="Linux libertine" font-size="10.00" fill="#000000">output:</text>
<polyline fill="none" stroke="#000000" points="188.5,-2006.5 188.5,-2044.5 "/>
<text text-anchor="middle" x="230.5" y="-2032.5" font-family="Linux libertine" font-size="10.00" fill="#000000">(4096, 4, 192)</text>
<polyline fill="none" stroke="#000000" points="188.5,-2025.5 272.5,-2025.5 "/>
<text text-anchor="middle" x="230.5" y="-2013.5" font-family="Linux libertine" font-size="10.00" fill="#000000">(4096, 4, 32)</text>
</g>
<!-- 3&#45;&gt;4 -->
<g id="edge4" class="edge">
<title>3&#45;&gt;4</title>
<path fill="none" stroke="#000000" d="M177,-2081.1856C177,-2073.2247 177,-2063.821 177,-2055.03"/>
<polygon fill="#000000" stroke="#000000" points="180.5001,-2054.7489 177,-2044.7489 173.5001,-2054.7489 180.5001,-2054.7489"/>
</g>
<!-- 5 -->
<g id="node6" class="node">
<title>5</title>
<polygon fill="#f0f8ff" stroke="#000000" points="92,-1931.5 92,-1969.5 262,-1969.5 262,-1931.5 92,-1931.5"/>
<text text-anchor="middle" x="112.5" y="-1948" font-family="Linux libertine" font-size="10.00" fill="#000000">cat&#45;1</text>
<polyline fill="none" stroke="#000000" points="133,-1931.5 133,-1969.5 "/>
<text text-anchor="middle" x="158.5" y="-1957.5" font-family="Linux libertine" font-size="10.00" fill="#000000">input:</text>
<polyline fill="none" stroke="#000000" points="133,-1950.5 184,-1950.5 "/>
<text text-anchor="middle" x="158.5" y="-1938.5" font-family="Linux libertine" font-size="10.00" fill="#000000">output:</text>
<polyline fill="none" stroke="#000000" points="184,-1931.5 184,-1969.5 "/>
<text text-anchor="middle" x="223" y="-1957.5" font-family="Linux libertine" font-size="10.00" fill="#000000">(4096, 4, 32)</text>
<polyline fill="none" stroke="#000000" points="184,-1950.5 262,-1950.5 "/>
<text text-anchor="middle" x="223" y="-1938.5" font-family="Linux libertine" font-size="10.00" fill="#000000">(4096, 5, 32)</text>
</g>
<!-- 4&#45;&gt;5 -->
<g id="edge5" class="edge">
<title>4&#45;&gt;5</title>
<path fill="none" stroke="#000000" d="M177,-2006.1856C177,-1998.2247 177,-1988.821 177,-1980.03"/>
<polygon fill="#000000" stroke="#000000" points="180.5001,-1979.7489 177,-1969.7489 173.5001,-1979.7489 180.5001,-1979.7489"/>
</g>
<!-- 6 -->
<g id="node7" class="node">
<title>6</title>
<polygon fill="#f0f8ff" stroke="#000000" points="87.5,-1856.5 87.5,-1894.5 266.5,-1894.5 266.5,-1856.5 87.5,-1856.5"/>
<text text-anchor="middle" x="112.5" y="-1873" font-family="Linux libertine" font-size="10.00" fill="#000000">add_&#45;1</text>
<polyline fill="none" stroke="#000000" points="137.5,-1856.5 137.5,-1894.5 "/>
<text text-anchor="middle" x="163" y="-1882.5" font-family="Linux libertine" font-size="10.00" fill="#000000">input:</text>
<polyline fill="none" stroke="#000000" points="137.5,-1875.5 188.5,-1875.5 "/>
<text text-anchor="middle" x="163" y="-1863.5" font-family="Linux libertine" font-size="10.00" fill="#000000">output:</text>
<polyline fill="none" stroke="#000000" points="188.5,-1856.5 188.5,-1894.5 "/>
<text text-anchor="middle" x="227.5" y="-1882.5" font-family="Linux libertine" font-size="10.00" fill="#000000">(4096, 5, 32)</text>
<polyline fill="none" stroke="#000000" points="188.5,-1875.5 266.5,-1875.5 "/>
<text text-anchor="middle" x="227.5" y="-1863.5" font-family="Linux libertine" font-size="10.00" fill="#000000">(4096, 5, 32)</text>
</g>
<!-- 5&#45;&gt;6 -->
<g id="edge6" class="edge">
<title>5&#45;&gt;6</title>
<path fill="none" stroke="#000000" d="M177,-1931.1856C177,-1923.2247 177,-1913.821 177,-1905.03"/>
<polygon fill="#000000" stroke="#000000" points="180.5001,-1904.7489 177,-1894.7489 173.5001,-1904.7489 180.5001,-1904.7489"/>
</g>
<!-- 7 -->
<g id="node8" class="node">
<title>7</title>
<polygon fill="#c1ffc1" stroke="#000000" points="80,-1781.5 80,-1819.5 274,-1819.5 274,-1781.5 80,-1781.5"/>
<text text-anchor="middle" x="112.5" y="-1798" font-family="Linux libertine" font-size="10.00" fill="#000000">Dropout&#45;1</text>
<polyline fill="none" stroke="#000000" points="145,-1781.5 145,-1819.5 "/>
<text text-anchor="middle" x="170.5" y="-1807.5" font-family="Linux libertine" font-size="10.00" fill="#000000">input:</text>
<polyline fill="none" stroke="#000000" points="145,-1800.5 196,-1800.5 "/>
<text text-anchor="middle" x="170.5" y="-1788.5" font-family="Linux libertine" font-size="10.00" fill="#000000">output:</text>
<polyline fill="none" stroke="#000000" points="196,-1781.5 196,-1819.5 "/>
<text text-anchor="middle" x="235" y="-1807.5" font-family="Linux libertine" font-size="10.00" fill="#000000">(4096, 5, 32)</text>
<polyline fill="none" stroke="#000000" points="196,-1800.5 274,-1800.5 "/>
<text text-anchor="middle" x="235" y="-1788.5" font-family="Linux libertine" font-size="10.00" fill="#000000">(4096, 5, 32)</text>
</g>
<!-- 6&#45;&gt;7 -->
<g id="edge7" class="edge">
<title>6&#45;&gt;7</title>
<path fill="none" stroke="#000000" d="M177,-1856.1856C177,-1848.2247 177,-1838.821 177,-1830.03"/>
<polygon fill="#000000" stroke="#000000" points="180.5001,-1829.7489 177,-1819.7489 173.5001,-1829.7489 180.5001,-1829.7489"/>
</g>
<!-- 8 -->
<g id="node9" class="node">
<title>8</title>
<polygon fill="#c1ffc1" stroke="#000000" points="69.5,-1706.5 69.5,-1744.5 284.5,-1744.5 284.5,-1706.5 69.5,-1706.5"/>
<text text-anchor="middle" x="112.5" y="-1723" font-family="Linux libertine" font-size="10.00" fill="#000000">Transformer&#45;1</text>
<polyline fill="none" stroke="#000000" points="155.5,-1706.5 155.5,-1744.5 "/>
<text text-anchor="middle" x="181" y="-1732.5" font-family="Linux libertine" font-size="10.00" fill="#000000">input:</text>
<polyline fill="none" stroke="#000000" points="155.5,-1725.5 206.5,-1725.5 "/>
<text text-anchor="middle" x="181" y="-1713.5" font-family="Linux libertine" font-size="10.00" fill="#000000">output:</text>
<polyline fill="none" stroke="#000000" points="206.5,-1706.5 206.5,-1744.5 "/>
<text text-anchor="middle" x="245.5" y="-1732.5" font-family="Linux libertine" font-size="10.00" fill="#000000">(4096, 5, 32)</text>
<polyline fill="none" stroke="#000000" points="206.5,-1725.5 284.5,-1725.5 "/>
<text text-anchor="middle" x="245.5" y="-1713.5" font-family="Linux libertine" font-size="10.00" fill="#000000">(4096, 5, 32)</text>
</g>
<!-- 7&#45;&gt;8 -->
<g id="edge8" class="edge">
<title>7&#45;&gt;8</title>
<path fill="none" stroke="#000000" d="M177,-1781.1856C177,-1773.2247 177,-1763.821 177,-1755.03"/>
<polygon fill="#000000" stroke="#000000" points="180.5001,-1754.7489 177,-1744.7489 173.5001,-1754.7489 180.5001,-1754.7489"/>
</g>
<!-- 9 -->
<g id="node10" class="node">
<title>9</title>
<polygon fill="#c1ffc1" stroke="#000000" points="15,-1631.5 15,-1669.5 213,-1669.5 213,-1631.5 15,-1631.5"/>
<text text-anchor="middle" x="49.5" y="-1648" font-family="Linux libertine" font-size="10.00" fill="#000000">PreNorm&#45;2</text>
<polyline fill="none" stroke="#000000" points="84,-1631.5 84,-1669.5 "/>
<text text-anchor="middle" x="109.5" y="-1657.5" font-family="Linux libertine" font-size="10.00" fill="#000000">input:</text>
<polyline fill="none" stroke="#000000" points="84,-1650.5 135,-1650.5 "/>
<text text-anchor="middle" x="109.5" y="-1638.5" font-family="Linux libertine" font-size="10.00" fill="#000000">output:</text>
<polyline fill="none" stroke="#000000" points="135,-1631.5 135,-1669.5 "/>
<text text-anchor="middle" x="174" y="-1657.5" font-family="Linux libertine" font-size="10.00" fill="#000000">(4096, 5, 32)</text>
<polyline fill="none" stroke="#000000" points="135,-1650.5 213,-1650.5 "/>
<text text-anchor="middle" x="174" y="-1638.5" font-family="Linux libertine" font-size="10.00" fill="#000000">(4096, 5, 32)</text>
</g>
<!-- 8&#45;&gt;9 -->
<g id="edge9" class="edge">
<title>8&#45;&gt;9</title>
<path fill="none" stroke="#000000" d="M160.7759,-1706.1856C153.4274,-1697.4374 144.6153,-1686.9468 136.631,-1677.4416"/>
<polygon fill="#000000" stroke="#000000" points="139.281,-1675.1548 130.1691,-1669.7489 133.9211,-1679.6572 139.281,-1675.1548"/>
</g>
<!-- 12 -->
<g id="node13" class="node">
<title>12</title>
<polygon fill="#f0f8ff" stroke="#000000" points="82.5,-1406.5 82.5,-1444.5 273.5,-1444.5 273.5,-1406.5 82.5,-1406.5"/>
<text text-anchor="middle" x="104.5" y="-1423" font-family="Linux libertine" font-size="10.00" fill="#000000">add&#45;2</text>
<polyline fill="none" stroke="#000000" points="126.5,-1406.5 126.5,-1444.5 "/>
<text text-anchor="middle" x="152" y="-1432.5" font-family="Linux libertine" font-size="10.00" fill="#000000">input:</text>
<polyline fill="none" stroke="#000000" points="126.5,-1425.5 177.5,-1425.5 "/>
<text text-anchor="middle" x="152" y="-1413.5" font-family="Linux libertine" font-size="10.00" fill="#000000">output:</text>
<polyline fill="none" stroke="#000000" points="177.5,-1406.5 177.5,-1444.5 "/>
<text text-anchor="middle" x="225.5" y="-1432.5" font-family="Linux libertine" font-size="10.00" fill="#000000">2 x (4096, 5, 32)</text>
<polyline fill="none" stroke="#000000" points="177.5,-1425.5 273.5,-1425.5 "/>
<text text-anchor="middle" x="225.5" y="-1413.5" font-family="Linux libertine" font-size="10.00" fill="#000000">(4096, 5, 32)</text>
</g>
<!-- 8&#45;&gt;12 -->
<g id="edge35" class="edge">
<title>8&#45;&gt;12</title>
<path fill="none" stroke="#000000" d="M197.7081,-1706.474C206.9689,-1696.5944 216.9261,-1683.73 222,-1670 251.1176,-1591.2068 251.5919,-1559.9855 223,-1481 219.2564,-1470.6582 212.708,-1460.8226 205.7467,-1452.3831"/>
<polygon fill="#000000" stroke="#000000" points="208.2595,-1449.9405 199.0241,-1444.7484 203.0059,-1454.5666 208.2595,-1449.9405"/>
</g>
<!-- 10 -->
<g id="node11" class="node">
<title>10</title>
<polygon fill="#c1ffc1" stroke="#000000" points="6.5,-1556.5 6.5,-1594.5 215.5,-1594.5 215.5,-1556.5 6.5,-1556.5"/>
<text text-anchor="middle" x="46.5" y="-1573" font-family="Linux libertine" font-size="10.00" fill="#000000">LayerNorm&#45;3</text>
<polyline fill="none" stroke="#000000" points="86.5,-1556.5 86.5,-1594.5 "/>
<text text-anchor="middle" x="112" y="-1582.5" font-family="Linux libertine" font-size="10.00" fill="#000000">input:</text>
<polyline fill="none" stroke="#000000" points="86.5,-1575.5 137.5,-1575.5 "/>
<text text-anchor="middle" x="112" y="-1563.5" font-family="Linux libertine" font-size="10.00" fill="#000000">output:</text>
<polyline fill="none" stroke="#000000" points="137.5,-1556.5 137.5,-1594.5 "/>
<text text-anchor="middle" x="176.5" y="-1582.5" font-family="Linux libertine" font-size="10.00" fill="#000000">(4096, 5, 32)</text>
<polyline fill="none" stroke="#000000" points="137.5,-1575.5 215.5,-1575.5 "/>
<text text-anchor="middle" x="176.5" y="-1563.5" font-family="Linux libertine" font-size="10.00" fill="#000000">(4096, 5, 32)</text>
</g>
<!-- 9&#45;&gt;10 -->
<g id="edge10" class="edge">
<title>9&#45;&gt;10</title>
<path fill="none" stroke="#000000" d="M113.2274,-1631.1856C112.909,-1623.2247 112.5328,-1613.821 112.1812,-1605.03"/>
<polygon fill="#000000" stroke="#000000" points="115.6669,-1604.601 111.77,-1594.7489 108.6725,-1604.8808 115.6669,-1604.601"/>
</g>
<!-- 11 -->
<g id="node12" class="node">
<title>11</title>
<polygon fill="#c1ffc1" stroke="#000000" points="14,-1481.5 14,-1519.5 214,-1519.5 214,-1481.5 14,-1481.5"/>
<text text-anchor="middle" x="49.5" y="-1498" font-family="Linux libertine" font-size="10.00" fill="#000000">Attention&#45;3</text>
<polyline fill="none" stroke="#000000" points="85,-1481.5 85,-1519.5 "/>
<text text-anchor="middle" x="110.5" y="-1507.5" font-family="Linux libertine" font-size="10.00" fill="#000000">input:</text>
<polyline fill="none" stroke="#000000" points="85,-1500.5 136,-1500.5 "/>
<text text-anchor="middle" x="110.5" y="-1488.5" font-family="Linux libertine" font-size="10.00" fill="#000000">output:</text>
<polyline fill="none" stroke="#000000" points="136,-1481.5 136,-1519.5 "/>
<text text-anchor="middle" x="175" y="-1507.5" font-family="Linux libertine" font-size="10.00" fill="#000000">(4096, 5, 32)</text>
<polyline fill="none" stroke="#000000" points="136,-1500.5 214,-1500.5 "/>
<text text-anchor="middle" x="175" y="-1488.5" font-family="Linux libertine" font-size="10.00" fill="#000000">(4096, 5, 32)</text>
</g>
<!-- 10&#45;&gt;11 -->
<g id="edge11" class="edge">
<title>10&#45;&gt;11</title>
<path fill="none" stroke="#000000" d="M111.7726,-1556.1856C112.091,-1548.2247 112.4672,-1538.821 112.8188,-1530.03"/>
<polygon fill="#000000" stroke="#000000" points="116.3275,-1529.8808 113.23,-1519.7489 109.3331,-1529.601 116.3275,-1529.8808"/>
</g>
<!-- 11&#45;&gt;12 -->
<g id="edge12" class="edge">
<title>11&#45;&gt;12</title>
<path fill="none" stroke="#000000" d="M130.4816,-1481.1856C137.9468,-1472.4374 146.8987,-1461.9468 155.0098,-1452.4416"/>
<polygon fill="#000000" stroke="#000000" points="157.7454,-1454.6277 161.5743,-1444.7489 152.4206,-1450.0839 157.7454,-1454.6277"/>
</g>
<!-- 13 -->
<g id="node14" class="node">
<title>13</title>
<polygon fill="#c1ffc1" stroke="#000000" points="16,-1331.5 16,-1369.5 214,-1369.5 214,-1331.5 16,-1331.5"/>
<text text-anchor="middle" x="50.5" y="-1348" font-family="Linux libertine" font-size="10.00" fill="#000000">PreNorm&#45;2</text>
<polyline fill="none" stroke="#000000" points="85,-1331.5 85,-1369.5 "/>
<text text-anchor="middle" x="110.5" y="-1357.5" font-family="Linux libertine" font-size="10.00" fill="#000000">input:</text>
<polyline fill="none" stroke="#000000" points="85,-1350.5 136,-1350.5 "/>
<text text-anchor="middle" x="110.5" y="-1338.5" font-family="Linux libertine" font-size="10.00" fill="#000000">output:</text>
<polyline fill="none" stroke="#000000" points="136,-1331.5 136,-1369.5 "/>
<text text-anchor="middle" x="175" y="-1357.5" font-family="Linux libertine" font-size="10.00" fill="#000000">(4096, 5, 32)</text>
<polyline fill="none" stroke="#000000" points="136,-1350.5 214,-1350.5 "/>
<text text-anchor="middle" x="175" y="-1338.5" font-family="Linux libertine" font-size="10.00" fill="#000000">(4096, 5, 32)</text>
</g>
<!-- 12&#45;&gt;13 -->
<g id="edge13" class="edge">
<title>12&#45;&gt;13</title>
<path fill="none" stroke="#000000" d="M161.7759,-1406.1856C154.4274,-1397.4374 145.6153,-1386.9468 137.631,-1377.4416"/>
<polygon fill="#000000" stroke="#000000" points="140.281,-1375.1548 131.1691,-1369.7489 134.9211,-1379.6572 140.281,-1375.1548"/>
</g>
<!-- 16 -->
<g id="node17" class="node">
<title>16</title>
<polygon fill="#f0f8ff" stroke="#000000" points="81.5,-1106.5 81.5,-1144.5 272.5,-1144.5 272.5,-1106.5 81.5,-1106.5"/>
<text text-anchor="middle" x="103.5" y="-1123" font-family="Linux libertine" font-size="10.00" fill="#000000">add&#45;2</text>
<polyline fill="none" stroke="#000000" points="125.5,-1106.5 125.5,-1144.5 "/>
<text text-anchor="middle" x="151" y="-1132.5" font-family="Linux libertine" font-size="10.00" fill="#000000">input:</text>
<polyline fill="none" stroke="#000000" points="125.5,-1125.5 176.5,-1125.5 "/>
<text text-anchor="middle" x="151" y="-1113.5" font-family="Linux libertine" font-size="10.00" fill="#000000">output:</text>
<polyline fill="none" stroke="#000000" points="176.5,-1106.5 176.5,-1144.5 "/>
<text text-anchor="middle" x="224.5" y="-1132.5" font-family="Linux libertine" font-size="10.00" fill="#000000">2 x (4096, 5, 32)</text>
<polyline fill="none" stroke="#000000" points="176.5,-1125.5 272.5,-1125.5 "/>
<text text-anchor="middle" x="224.5" y="-1113.5" font-family="Linux libertine" font-size="10.00" fill="#000000">(4096, 5, 32)</text>
</g>
<!-- 12&#45;&gt;16 -->
<g id="edge34" class="edge">
<title>12&#45;&gt;16</title>
<path fill="none" stroke="#000000" d="M198.7081,-1406.474C207.9689,-1396.5944 217.9261,-1383.73 223,-1370 252.1237,-1291.1903 257.1204,-1259.4342 227,-1181 222.8708,-1170.2476 215.5889,-1160.2759 207.8386,-1151.8374"/>
<polygon fill="#000000" stroke="#000000" points="210.1724,-1149.2188 200.6665,-1144.5404 205.1801,-1154.1257 210.1724,-1149.2188"/>
</g>
<!-- 14 -->
<g id="node15" class="node">
<title>14</title>
<polygon fill="#c1ffc1" stroke="#000000" points="6.5,-1256.5 6.5,-1294.5 215.5,-1294.5 215.5,-1256.5 6.5,-1256.5"/>
<text text-anchor="middle" x="46.5" y="-1273" font-family="Linux libertine" font-size="10.00" fill="#000000">LayerNorm&#45;3</text>
<polyline fill="none" stroke="#000000" points="86.5,-1256.5 86.5,-1294.5 "/>
<text text-anchor="middle" x="112" y="-1282.5" font-family="Linux libertine" font-size="10.00" fill="#000000">input:</text>
<polyline fill="none" stroke="#000000" points="86.5,-1275.5 137.5,-1275.5 "/>
<text text-anchor="middle" x="112" y="-1263.5" font-family="Linux libertine" font-size="10.00" fill="#000000">output:</text>
<polyline fill="none" stroke="#000000" points="137.5,-1256.5 137.5,-1294.5 "/>
<text text-anchor="middle" x="176.5" y="-1282.5" font-family="Linux libertine" font-size="10.00" fill="#000000">(4096, 5, 32)</text>
<polyline fill="none" stroke="#000000" points="137.5,-1275.5 215.5,-1275.5 "/>
<text text-anchor="middle" x="176.5" y="-1263.5" font-family="Linux libertine" font-size="10.00" fill="#000000">(4096, 5, 32)</text>
</g>
<!-- 13&#45;&gt;14 -->
<g id="edge14" class="edge">
<title>13&#45;&gt;14</title>
<path fill="none" stroke="#000000" d="M113.9699,-1331.1856C113.5407,-1323.1372 113.0328,-1313.6142 112.5595,-1304.7404"/>
<polygon fill="#000000" stroke="#000000" points="116.0543,-1304.5483 112.0266,-1294.7489 109.0642,-1304.9212 116.0543,-1304.5483"/>
</g>
<!-- 15 -->
<g id="node16" class="node">
<title>15</title>
<polygon fill="#c1ffc1" stroke="#000000" points="0,-1181.5 0,-1219.5 218,-1219.5 218,-1181.5 0,-1181.5"/>
<text text-anchor="middle" x="44.5" y="-1198" font-family="Linux libertine" font-size="10.00" fill="#000000">FeedForward&#45;3</text>
<polyline fill="none" stroke="#000000" points="89,-1181.5 89,-1219.5 "/>
<text text-anchor="middle" x="114.5" y="-1207.5" font-family="Linux libertine" font-size="10.00" fill="#000000">input:</text>
<polyline fill="none" stroke="#000000" points="89,-1200.5 140,-1200.5 "/>
<text text-anchor="middle" x="114.5" y="-1188.5" font-family="Linux libertine" font-size="10.00" fill="#000000">output:</text>
<polyline fill="none" stroke="#000000" points="140,-1181.5 140,-1219.5 "/>
<text text-anchor="middle" x="179" y="-1207.5" font-family="Linux libertine" font-size="10.00" fill="#000000">(4096, 5, 32)</text>
<polyline fill="none" stroke="#000000" points="140,-1200.5 218,-1200.5 "/>
<text text-anchor="middle" x="179" y="-1188.5" font-family="Linux libertine" font-size="10.00" fill="#000000">(4096, 5, 32)</text>
</g>
<!-- 14&#45;&gt;15 -->
<g id="edge15" class="edge">
<title>14&#45;&gt;15</title>
<path fill="none" stroke="#000000" d="M110.485,-1256.1856C110.2727,-1248.2247 110.0219,-1238.821 109.7875,-1230.03"/>
<polygon fill="#000000" stroke="#000000" points="113.2787,-1229.652 109.5133,-1219.7489 106.2812,-1229.8387 113.2787,-1229.652"/>
</g>
<!-- 15&#45;&gt;16 -->
<g id="edge16" class="edge">
<title>15&#45;&gt;16</title>
<path fill="none" stroke="#000000" d="M126.5117,-1181.1856C134.4435,-1172.4374 143.9549,-1161.9468 152.5729,-1152.4416"/>
<polygon fill="#000000" stroke="#000000" points="155.4237,-1154.5082 159.5477,-1144.7489 150.2378,-1149.8063 155.4237,-1154.5082"/>
</g>
<!-- 17 -->
<g id="node18" class="node">
<title>17</title>
<polygon fill="#c1ffc1" stroke="#000000" points="15,-1031.5 15,-1069.5 213,-1069.5 213,-1031.5 15,-1031.5"/>
<text text-anchor="middle" x="49.5" y="-1048" font-family="Linux libertine" font-size="10.00" fill="#000000">PreNorm&#45;2</text>
<polyline fill="none" stroke="#000000" points="84,-1031.5 84,-1069.5 "/>
<text text-anchor="middle" x="109.5" y="-1057.5" font-family="Linux libertine" font-size="10.00" fill="#000000">input:</text>
<polyline fill="none" stroke="#000000" points="84,-1050.5 135,-1050.5 "/>
<text text-anchor="middle" x="109.5" y="-1038.5" font-family="Linux libertine" font-size="10.00" fill="#000000">output:</text>
<polyline fill="none" stroke="#000000" points="135,-1031.5 135,-1069.5 "/>
<text text-anchor="middle" x="174" y="-1057.5" font-family="Linux libertine" font-size="10.00" fill="#000000">(4096, 5, 32)</text>
<polyline fill="none" stroke="#000000" points="135,-1050.5 213,-1050.5 "/>
<text text-anchor="middle" x="174" y="-1038.5" font-family="Linux libertine" font-size="10.00" fill="#000000">(4096, 5, 32)</text>
</g>
<!-- 16&#45;&gt;17 -->
<g id="edge17" class="edge">
<title>16&#45;&gt;17</title>
<path fill="none" stroke="#000000" d="M160.7759,-1106.1856C153.4274,-1097.4374 144.6153,-1086.9468 136.631,-1077.4416"/>
<polygon fill="#000000" stroke="#000000" points="139.281,-1075.1548 130.1691,-1069.7489 133.9211,-1079.6572 139.281,-1075.1548"/>
</g>
<!-- 20 -->
<g id="node21" class="node">
<title>20</title>
<polygon fill="#f0f8ff" stroke="#000000" points="82.5,-806.5 82.5,-844.5 273.5,-844.5 273.5,-806.5 82.5,-806.5"/>
<text text-anchor="middle" x="104.5" y="-823" font-family="Linux libertine" font-size="10.00" fill="#000000">add&#45;2</text>
<polyline fill="none" stroke="#000000" points="126.5,-806.5 126.5,-844.5 "/>
<text text-anchor="middle" x="152" y="-832.5" font-family="Linux libertine" font-size="10.00" fill="#000000">input:</text>
<polyline fill="none" stroke="#000000" points="126.5,-825.5 177.5,-825.5 "/>
<text text-anchor="middle" x="152" y="-813.5" font-family="Linux libertine" font-size="10.00" fill="#000000">output:</text>
<polyline fill="none" stroke="#000000" points="177.5,-806.5 177.5,-844.5 "/>
<text text-anchor="middle" x="225.5" y="-832.5" font-family="Linux libertine" font-size="10.00" fill="#000000">2 x (4096, 5, 32)</text>
<polyline fill="none" stroke="#000000" points="177.5,-825.5 273.5,-825.5 "/>
<text text-anchor="middle" x="225.5" y="-813.5" font-family="Linux libertine" font-size="10.00" fill="#000000">(4096, 5, 32)</text>
</g>
<!-- 16&#45;&gt;20 -->
<g id="edge33" class="edge">
<title>16&#45;&gt;20</title>
<path fill="none" stroke="#000000" d="M197.7081,-1106.474C206.9689,-1096.5944 216.9261,-1083.73 222,-1070 251.1176,-991.2068 251.5919,-959.9855 223,-881 219.2564,-870.6582 212.708,-860.8226 205.7467,-852.3831"/>
<polygon fill="#000000" stroke="#000000" points="208.2595,-849.9405 199.0241,-844.7484 203.0059,-854.5666 208.2595,-849.9405"/>
</g>
<!-- 18 -->
<g id="node19" class="node">
<title>18</title>
<polygon fill="#c1ffc1" stroke="#000000" points="6.5,-956.5 6.5,-994.5 215.5,-994.5 215.5,-956.5 6.5,-956.5"/>
<text text-anchor="middle" x="46.5" y="-973" font-family="Linux libertine" font-size="10.00" fill="#000000">LayerNorm&#45;3</text>
<polyline fill="none" stroke="#000000" points="86.5,-956.5 86.5,-994.5 "/>
<text text-anchor="middle" x="112" y="-982.5" font-family="Linux libertine" font-size="10.00" fill="#000000">input:</text>
<polyline fill="none" stroke="#000000" points="86.5,-975.5 137.5,-975.5 "/>
<text text-anchor="middle" x="112" y="-963.5" font-family="Linux libertine" font-size="10.00" fill="#000000">output:</text>
<polyline fill="none" stroke="#000000" points="137.5,-956.5 137.5,-994.5 "/>
<text text-anchor="middle" x="176.5" y="-982.5" font-family="Linux libertine" font-size="10.00" fill="#000000">(4096, 5, 32)</text>
<polyline fill="none" stroke="#000000" points="137.5,-975.5 215.5,-975.5 "/>
<text text-anchor="middle" x="176.5" y="-963.5" font-family="Linux libertine" font-size="10.00" fill="#000000">(4096, 5, 32)</text>
</g>
<!-- 17&#45;&gt;18 -->
<g id="edge18" class="edge">
<title>17&#45;&gt;18</title>
<path fill="none" stroke="#000000" d="M113.2274,-1031.1856C112.909,-1023.2247 112.5328,-1013.821 112.1812,-1005.03"/>
<polygon fill="#000000" stroke="#000000" points="115.6669,-1004.601 111.77,-994.7489 108.6725,-1004.8808 115.6669,-1004.601"/>
</g>
<!-- 19 -->
<g id="node20" class="node">
<title>19</title>
<polygon fill="#c1ffc1" stroke="#000000" points="14,-881.5 14,-919.5 214,-919.5 214,-881.5 14,-881.5"/>
<text text-anchor="middle" x="49.5" y="-898" font-family="Linux libertine" font-size="10.00" fill="#000000">Attention&#45;3</text>
<polyline fill="none" stroke="#000000" points="85,-881.5 85,-919.5 "/>
<text text-anchor="middle" x="110.5" y="-907.5" font-family="Linux libertine" font-size="10.00" fill="#000000">input:</text>
<polyline fill="none" stroke="#000000" points="85,-900.5 136,-900.5 "/>
<text text-anchor="middle" x="110.5" y="-888.5" font-family="Linux libertine" font-size="10.00" fill="#000000">output:</text>
<polyline fill="none" stroke="#000000" points="136,-881.5 136,-919.5 "/>
<text text-anchor="middle" x="175" y="-907.5" font-family="Linux libertine" font-size="10.00" fill="#000000">(4096, 5, 32)</text>
<polyline fill="none" stroke="#000000" points="136,-900.5 214,-900.5 "/>
<text text-anchor="middle" x="175" y="-888.5" font-family="Linux libertine" font-size="10.00" fill="#000000">(4096, 5, 32)</text>
</g>
<!-- 18&#45;&gt;19 -->
<g id="edge19" class="edge">
<title>18&#45;&gt;19</title>
<path fill="none" stroke="#000000" d="M111.7726,-956.1856C112.091,-948.2247 112.4672,-938.821 112.8188,-930.03"/>
<polygon fill="#000000" stroke="#000000" points="116.3275,-929.8808 113.23,-919.7489 109.3331,-929.601 116.3275,-929.8808"/>
</g>
<!-- 19&#45;&gt;20 -->
<g id="edge20" class="edge">
<title>19&#45;&gt;20</title>
<path fill="none" stroke="#000000" d="M130.4816,-881.1856C137.9468,-872.4374 146.8987,-861.9468 155.0098,-852.4416"/>
<polygon fill="#000000" stroke="#000000" points="157.7454,-854.6277 161.5743,-844.7489 152.4206,-850.0839 157.7454,-854.6277"/>
</g>
<!-- 21 -->
<g id="node22" class="node">
<title>21</title>
<polygon fill="#c1ffc1" stroke="#000000" points="16,-731.5 16,-769.5 214,-769.5 214,-731.5 16,-731.5"/>
<text text-anchor="middle" x="50.5" y="-748" font-family="Linux libertine" font-size="10.00" fill="#000000">PreNorm&#45;2</text>
<polyline fill="none" stroke="#000000" points="85,-731.5 85,-769.5 "/>
<text text-anchor="middle" x="110.5" y="-757.5" font-family="Linux libertine" font-size="10.00" fill="#000000">input:</text>
<polyline fill="none" stroke="#000000" points="85,-750.5 136,-750.5 "/>
<text text-anchor="middle" x="110.5" y="-738.5" font-family="Linux libertine" font-size="10.00" fill="#000000">output:</text>
<polyline fill="none" stroke="#000000" points="136,-731.5 136,-769.5 "/>
<text text-anchor="middle" x="175" y="-757.5" font-family="Linux libertine" font-size="10.00" fill="#000000">(4096, 5, 32)</text>
<polyline fill="none" stroke="#000000" points="136,-750.5 214,-750.5 "/>
<text text-anchor="middle" x="175" y="-738.5" font-family="Linux libertine" font-size="10.00" fill="#000000">(4096, 5, 32)</text>
</g>
<!-- 20&#45;&gt;21 -->
<g id="edge21" class="edge">
<title>20&#45;&gt;21</title>
<path fill="none" stroke="#000000" d="M161.7759,-806.1856C154.4274,-797.4374 145.6153,-786.9468 137.631,-777.4416"/>
<polygon fill="#000000" stroke="#000000" points="140.281,-775.1548 131.1691,-769.7489 134.9211,-779.6572 140.281,-775.1548"/>
</g>
<!-- 24 -->
<g id="node25" class="node">
<title>24</title>
<polygon fill="#f0f8ff" stroke="#000000" points="81.5,-506.5 81.5,-544.5 272.5,-544.5 272.5,-506.5 81.5,-506.5"/>
<text text-anchor="middle" x="103.5" y="-523" font-family="Linux libertine" font-size="10.00" fill="#000000">add&#45;2</text>
<polyline fill="none" stroke="#000000" points="125.5,-506.5 125.5,-544.5 "/>
<text text-anchor="middle" x="151" y="-532.5" font-family="Linux libertine" font-size="10.00" fill="#000000">input:</text>
<polyline fill="none" stroke="#000000" points="125.5,-525.5 176.5,-525.5 "/>
<text text-anchor="middle" x="151" y="-513.5" font-family="Linux libertine" font-size="10.00" fill="#000000">output:</text>
<polyline fill="none" stroke="#000000" points="176.5,-506.5 176.5,-544.5 "/>
<text text-anchor="middle" x="224.5" y="-532.5" font-family="Linux libertine" font-size="10.00" fill="#000000">2 x (4096, 5, 32)</text>
<polyline fill="none" stroke="#000000" points="176.5,-525.5 272.5,-525.5 "/>
<text text-anchor="middle" x="224.5" y="-513.5" font-family="Linux libertine" font-size="10.00" fill="#000000">(4096, 5, 32)</text>
</g>
<!-- 20&#45;&gt;24 -->
<g id="edge32" class="edge">
<title>20&#45;&gt;24</title>
<path fill="none" stroke="#000000" d="M198.7081,-806.474C207.9689,-796.5944 217.9261,-783.73 223,-770 252.1237,-691.1903 257.1204,-659.4342 227,-581 222.8708,-570.2476 215.5889,-560.2759 207.8386,-551.8374"/>
<polygon fill="#000000" stroke="#000000" points="210.1724,-549.2188 200.6665,-544.5404 205.1801,-554.1257 210.1724,-549.2188"/>
</g>
<!-- 22 -->
<g id="node23" class="node">
<title>22</title>
<polygon fill="#c1ffc1" stroke="#000000" points="6.5,-656.5 6.5,-694.5 215.5,-694.5 215.5,-656.5 6.5,-656.5"/>
<text text-anchor="middle" x="46.5" y="-673" font-family="Linux libertine" font-size="10.00" fill="#000000">LayerNorm&#45;3</text>
<polyline fill="none" stroke="#000000" points="86.5,-656.5 86.5,-694.5 "/>
<text text-anchor="middle" x="112" y="-682.5" font-family="Linux libertine" font-size="10.00" fill="#000000">input:</text>
<polyline fill="none" stroke="#000000" points="86.5,-675.5 137.5,-675.5 "/>
<text text-anchor="middle" x="112" y="-663.5" font-family="Linux libertine" font-size="10.00" fill="#000000">output:</text>
<polyline fill="none" stroke="#000000" points="137.5,-656.5 137.5,-694.5 "/>
<text text-anchor="middle" x="176.5" y="-682.5" font-family="Linux libertine" font-size="10.00" fill="#000000">(4096, 5, 32)</text>
<polyline fill="none" stroke="#000000" points="137.5,-675.5 215.5,-675.5 "/>
<text text-anchor="middle" x="176.5" y="-663.5" font-family="Linux libertine" font-size="10.00" fill="#000000">(4096, 5, 32)</text>
</g>
<!-- 21&#45;&gt;22 -->
<g id="edge22" class="edge">
<title>21&#45;&gt;22</title>
<path fill="none" stroke="#000000" d="M113.9699,-731.1856C113.5407,-723.1372 113.0328,-713.6142 112.5595,-704.7404"/>
<polygon fill="#000000" stroke="#000000" points="116.0543,-704.5483 112.0266,-694.7489 109.0642,-704.9212 116.0543,-704.5483"/>
</g>
<!-- 23 -->
<g id="node24" class="node">
<title>23</title>
<polygon fill="#c1ffc1" stroke="#000000" points="0,-581.5 0,-619.5 218,-619.5 218,-581.5 0,-581.5"/>
<text text-anchor="middle" x="44.5" y="-598" font-family="Linux libertine" font-size="10.00" fill="#000000">FeedForward&#45;3</text>
<polyline fill="none" stroke="#000000" points="89,-581.5 89,-619.5 "/>
<text text-anchor="middle" x="114.5" y="-607.5" font-family="Linux libertine" font-size="10.00" fill="#000000">input:</text>
<polyline fill="none" stroke="#000000" points="89,-600.5 140,-600.5 "/>
<text text-anchor="middle" x="114.5" y="-588.5" font-family="Linux libertine" font-size="10.00" fill="#000000">output:</text>
<polyline fill="none" stroke="#000000" points="140,-581.5 140,-619.5 "/>
<text text-anchor="middle" x="179" y="-607.5" font-family="Linux libertine" font-size="10.00" fill="#000000">(4096, 5, 32)</text>
<polyline fill="none" stroke="#000000" points="140,-600.5 218,-600.5 "/>
<text text-anchor="middle" x="179" y="-588.5" font-family="Linux libertine" font-size="10.00" fill="#000000">(4096, 5, 32)</text>
</g>
<!-- 22&#45;&gt;23 -->
<g id="edge23" class="edge">
<title>22&#45;&gt;23</title>
<path fill="none" stroke="#000000" d="M110.485,-656.1856C110.2727,-648.2247 110.0219,-638.821 109.7875,-630.03"/>
<polygon fill="#000000" stroke="#000000" points="113.2787,-629.652 109.5133,-619.7489 106.2812,-629.8387 113.2787,-629.652"/>
</g>
<!-- 23&#45;&gt;24 -->
<g id="edge24" class="edge">
<title>23&#45;&gt;24</title>
<path fill="none" stroke="#000000" d="M126.5117,-581.1856C134.4435,-572.4374 143.9549,-561.9468 152.5729,-552.4416"/>
<polygon fill="#000000" stroke="#000000" points="155.4237,-554.5082 159.5477,-544.7489 150.2378,-549.8063 155.4237,-554.5082"/>
</g>
<!-- 25 -->
<g id="node26" class="node">
<title>25</title>
<polygon fill="#f0f8ff" stroke="#000000" points="69.5,-431.5 69.5,-469.5 284.5,-469.5 284.5,-431.5 69.5,-431.5"/>
<text text-anchor="middle" x="112.5" y="-448" font-family="Linux libertine" font-size="10.00" fill="#000000">__getitem__&#45;1</text>
<polyline fill="none" stroke="#000000" points="155.5,-431.5 155.5,-469.5 "/>
<text text-anchor="middle" x="181" y="-457.5" font-family="Linux libertine" font-size="10.00" fill="#000000">input:</text>
<polyline fill="none" stroke="#000000" points="155.5,-450.5 206.5,-450.5 "/>
<text text-anchor="middle" x="181" y="-438.5" font-family="Linux libertine" font-size="10.00" fill="#000000">output:</text>
<polyline fill="none" stroke="#000000" points="206.5,-431.5 206.5,-469.5 "/>
<text text-anchor="middle" x="245.5" y="-457.5" font-family="Linux libertine" font-size="10.00" fill="#000000">(4096, 5, 32)</text>
<polyline fill="none" stroke="#000000" points="206.5,-450.5 284.5,-450.5 "/>
<text text-anchor="middle" x="245.5" y="-438.5" font-family="Linux libertine" font-size="10.00" fill="#000000">(4096, 32)</text>
</g>
<!-- 24&#45;&gt;25 -->
<g id="edge25" class="edge">
<title>24&#45;&gt;25</title>
<path fill="none" stroke="#000000" d="M177,-506.1856C177,-498.2247 177,-488.821 177,-480.03"/>
<polygon fill="#000000" stroke="#000000" points="180.5001,-479.7489 177,-469.7489 173.5001,-479.7489 180.5001,-479.7489"/>
</g>
<!-- 26 -->
<g id="node27" class="node">
<title>26</title>
<polygon fill="#c1ffc1" stroke="#000000" points="86.5,-356.5 86.5,-394.5 267.5,-394.5 267.5,-356.5 86.5,-356.5"/>
<text text-anchor="middle" x="118.5" y="-373" font-family="Linux libertine" font-size="10.00" fill="#000000">Identity&#45;1</text>
<polyline fill="none" stroke="#000000" points="150.5,-356.5 150.5,-394.5 "/>
<text text-anchor="middle" x="176" y="-382.5" font-family="Linux libertine" font-size="10.00" fill="#000000">input:</text>
<polyline fill="none" stroke="#000000" points="150.5,-375.5 201.5,-375.5 "/>
<text text-anchor="middle" x="176" y="-363.5" font-family="Linux libertine" font-size="10.00" fill="#000000">output:</text>
<polyline fill="none" stroke="#000000" points="201.5,-356.5 201.5,-394.5 "/>
<text text-anchor="middle" x="234.5" y="-382.5" font-family="Linux libertine" font-size="10.00" fill="#000000">(4096, 32)</text>
<polyline fill="none" stroke="#000000" points="201.5,-375.5 267.5,-375.5 "/>
<text text-anchor="middle" x="234.5" y="-363.5" font-family="Linux libertine" font-size="10.00" fill="#000000">(4096, 32)</text>
</g>
<!-- 25&#45;&gt;26 -->
<g id="edge26" class="edge">
<title>25&#45;&gt;26</title>
<path fill="none" stroke="#000000" d="M177,-431.1856C177,-423.2247 177,-413.821 177,-405.03"/>
<polygon fill="#000000" stroke="#000000" points="180.5001,-404.7489 177,-394.7489 173.5001,-404.7489 180.5001,-404.7489"/>
</g>
<!-- 27 -->
<g id="node28" class="node">
<title>27</title>
<polygon fill="#c1ffc1" stroke="#000000" points="79.5,-281.5 79.5,-319.5 274.5,-319.5 274.5,-281.5 79.5,-281.5"/>
<text text-anchor="middle" x="118.5" y="-298" font-family="Linux libertine" font-size="10.00" fill="#000000">Sequential&#45;1</text>
<polyline fill="none" stroke="#000000" points="157.5,-281.5 157.5,-319.5 "/>
<text text-anchor="middle" x="183" y="-307.5" font-family="Linux libertine" font-size="10.00" fill="#000000">input:</text>
<polyline fill="none" stroke="#000000" points="157.5,-300.5 208.5,-300.5 "/>
<text text-anchor="middle" x="183" y="-288.5" font-family="Linux libertine" font-size="10.00" fill="#000000">output:</text>
<polyline fill="none" stroke="#000000" points="208.5,-281.5 208.5,-319.5 "/>
<text text-anchor="middle" x="241.5" y="-307.5" font-family="Linux libertine" font-size="10.00" fill="#000000">(4096, 32)</text>
<polyline fill="none" stroke="#000000" points="208.5,-300.5 274.5,-300.5 "/>
<text text-anchor="middle" x="241.5" y="-288.5" font-family="Linux libertine" font-size="10.00" fill="#000000">(4096, 1)</text>
</g>
<!-- 26&#45;&gt;27 -->
<g id="edge27" class="edge">
<title>26&#45;&gt;27</title>
<path fill="none" stroke="#000000" d="M177,-356.1856C177,-348.2247 177,-338.821 177,-330.03"/>
<polygon fill="#000000" stroke="#000000" points="180.5001,-329.7489 177,-319.7489 173.5001,-329.7489 180.5001,-329.7489"/>
</g>
<!-- 28 -->
<g id="node29" class="node">
<title>28</title>
<polygon fill="#c1ffc1" stroke="#000000" points="78.5,-206.5 78.5,-244.5 275.5,-244.5 275.5,-206.5 78.5,-206.5"/>
<text text-anchor="middle" x="118.5" y="-223" font-family="Linux libertine" font-size="10.00" fill="#000000">LayerNorm&#45;2</text>
<polyline fill="none" stroke="#000000" points="158.5,-206.5 158.5,-244.5 "/>
<text text-anchor="middle" x="184" y="-232.5" font-family="Linux libertine" font-size="10.00" fill="#000000">input:</text>
<polyline fill="none" stroke="#000000" points="158.5,-225.5 209.5,-225.5 "/>
<text text-anchor="middle" x="184" y="-213.5" font-family="Linux libertine" font-size="10.00" fill="#000000">output:</text>
<polyline fill="none" stroke="#000000" points="209.5,-206.5 209.5,-244.5 "/>
<text text-anchor="middle" x="242.5" y="-232.5" font-family="Linux libertine" font-size="10.00" fill="#000000">(4096, 32)</text>
<polyline fill="none" stroke="#000000" points="209.5,-225.5 275.5,-225.5 "/>
<text text-anchor="middle" x="242.5" y="-213.5" font-family="Linux libertine" font-size="10.00" fill="#000000">(4096, 32)</text>
</g>
<!-- 27&#45;&gt;28 -->
<g id="edge28" class="edge">
<title>27&#45;&gt;28</title>
<path fill="none" stroke="#000000" d="M177,-281.1856C177,-273.2247 177,-263.821 177,-255.03"/>
<polygon fill="#000000" stroke="#000000" points="180.5001,-254.7489 177,-244.7489 173.5001,-254.7489 180.5001,-254.7489"/>
</g>
<!-- 29 -->
<g id="node30" class="node">
<title>29</title>
<polygon fill="#c1ffc1" stroke="#000000" points="90.5,-131.5 90.5,-169.5 263.5,-169.5 263.5,-131.5 90.5,-131.5"/>
<text text-anchor="middle" x="118.5" y="-148" font-family="Linux libertine" font-size="10.00" fill="#000000">Linear&#45;2</text>
<polyline fill="none" stroke="#000000" points="146.5,-131.5 146.5,-169.5 "/>
<text text-anchor="middle" x="172" y="-157.5" font-family="Linux libertine" font-size="10.00" fill="#000000">input:</text>
<polyline fill="none" stroke="#000000" points="146.5,-150.5 197.5,-150.5 "/>
<text text-anchor="middle" x="172" y="-138.5" font-family="Linux libertine" font-size="10.00" fill="#000000">output:</text>
<polyline fill="none" stroke="#000000" points="197.5,-131.5 197.5,-169.5 "/>
<text text-anchor="middle" x="230.5" y="-157.5" font-family="Linux libertine" font-size="10.00" fill="#000000">(4096, 32)</text>
<polyline fill="none" stroke="#000000" points="197.5,-150.5 263.5,-150.5 "/>
<text text-anchor="middle" x="230.5" y="-138.5" font-family="Linux libertine" font-size="10.00" fill="#000000">(4096, 1)</text>
</g>
<!-- 28&#45;&gt;29 -->
<g id="edge29" class="edge">
<title>28&#45;&gt;29</title>
<path fill="none" stroke="#000000" d="M177,-206.1856C177,-198.2247 177,-188.821 177,-180.03"/>
<polygon fill="#000000" stroke="#000000" points="180.5001,-179.7489 177,-169.7489 173.5001,-179.7489 180.5001,-179.7489"/>
</g>
<!-- 30 -->
<g id="node31" class="node">
<title>30</title>
<polygon fill="#f0f8ff" stroke="#000000" points="89,-56.5 89,-94.5 265,-94.5 265,-56.5 89,-56.5"/>
<text text-anchor="middle" x="121.5" y="-73" font-family="Linux libertine" font-size="10.00" fill="#000000">sigmoid&#45;1</text>
<polyline fill="none" stroke="#000000" points="154,-56.5 154,-94.5 "/>
<text text-anchor="middle" x="179.5" y="-82.5" font-family="Linux libertine" font-size="10.00" fill="#000000">input:</text>
<polyline fill="none" stroke="#000000" points="154,-75.5 205,-75.5 "/>
<text text-anchor="middle" x="179.5" y="-63.5" font-family="Linux libertine" font-size="10.00" fill="#000000">output:</text>
<polyline fill="none" stroke="#000000" points="205,-56.5 205,-94.5 "/>
<text text-anchor="middle" x="235" y="-82.5" font-family="Linux libertine" font-size="10.00" fill="#000000">(4096, 1)</text>
<polyline fill="none" stroke="#000000" points="205,-75.5 265,-75.5 "/>
<text text-anchor="middle" x="235" y="-63.5" font-family="Linux libertine" font-size="10.00" fill="#000000">(4096, 1)</text>
</g>
<!-- 29&#45;&gt;30 -->
<g id="edge30" class="edge">
<title>29&#45;&gt;30</title>
<path fill="none" stroke="#000000" d="M177,-131.1856C177,-123.2247 177,-113.821 177,-105.03"/>
<polygon fill="#000000" stroke="#000000" points="180.5001,-104.7489 177,-94.7489 173.5001,-104.7489 180.5001,-104.7489"/>
</g>
<!-- 31 -->
<g id="node32" class="node">
<title>31</title>
<polygon fill="#ffffe0" stroke="#000000" points="106,-.5 106,-19.5 248,-19.5 248,-.5 106,-.5"/>
<text text-anchor="middle" x="177" y="-7.5" font-family="Linux libertine" font-size="10.00" fill="#000000">output&#45;tensor&#45;0: (4096, 1)</text>
</g>
<!-- 30&#45;&gt;31 -->
<g id="edge31" class="edge">
<title>30&#45;&gt;31</title>
<path fill="none" stroke="#000000" d="M177,-56.2021C177,-47.8058 177,-37.9818 177,-29.5565"/>
<polygon fill="#000000" stroke="#000000" points="180.5001,-29.5242 177,-19.5243 173.5001,-29.5243 180.5001,-29.5242"/>
</g>
</g>
</svg>
